<svg width="24" height="24" viewBox="0 0 24 24" fill="none" xmlns="http://www.w3.org/2000/svg">
<g clip-path="url(#clip0_649_137527)">
<path d="M8.19978 0.511719H2.5C1.39543 0.511719 0.5 1.40715 0.5 2.51172V21.4882C0.5 22.5928 1.39543 23.4882 2.5 23.4882H8.19978" stroke="#44DFD7"/>
<path d="M15.7885 0.511719H21.4883C22.5929 0.511719 23.4883 1.40715 23.4883 2.51172V21.4882C23.4883 22.5928 22.5929 23.4882 21.4883 23.4882H15.7885" stroke="#44DFD7"/>
<path d="M4.55859 19.6846H4.05859V20.8122L4.89428 20.0551L4.55859 19.6846ZM4.55859 5.70801V5.20801H4.05859V5.70801H4.55859ZM19.4297 5.70801H19.9297V5.20801H19.4297V5.70801ZM19.4297 16.1963V16.6963H19.9297V16.1963H19.4297ZM8.40918 16.1963V15.6963H8.21638L8.07349 15.8257L8.40918 16.1963ZM4.55859 19.6846H5.05859V5.70801H4.55859H4.05859V19.6846H4.55859ZM4.55859 5.70801V6.20801H19.4297V5.70801V5.20801H4.55859V5.70801ZM19.4297 5.70801H18.9297V16.1963H19.4297H19.9297V5.70801H19.4297ZM19.4297 16.1963V15.6963H8.40918V16.1963V16.6963H19.4297V16.1963ZM8.40918 16.1963L8.07349 15.8257L4.2229 19.314L4.55859 19.6846L4.89428 20.0551L8.74487 16.5668L8.40918 16.1963Z" fill="#44DFD7"/>
<path d="M14.3325 11.6358L15.047 10.7001L13.9922 10.3939L14.1726 9.83583L15.2206 10.2373L15.1729 9.05664H15.765L15.7106 10.2612L16.7415 9.85965L16.9219 10.4279L15.8467 10.7375L16.5442 11.6528L16.0644 11.9999L15.4349 11.0131L14.8157 11.9727L14.3325 11.6358Z" fill="#44DFD7"/>
<path d="M10.8715 11.6358L11.5861 10.7001L10.5313 10.3939L10.7116 9.83583L11.7596 10.2373L11.712 9.05664H12.304L12.2496 10.2612L13.2806 9.85965L13.4609 10.4279L12.3857 10.7375L13.0832 11.6528L12.6035 11.9999L11.974 11.0131L11.3547 11.9727L10.8715 11.6358Z" fill="#44DFD7"/>
<path d="M7.41057 11.6358L8.12511 10.7001L7.07031 10.3939L7.25065 9.83583L8.29865 10.2373L8.25101 9.05664H8.84306L8.78862 10.2612L9.8196 9.85965L9.99994 10.4279L8.92472 10.7375L9.62225 11.6528L9.14249 11.9999L8.51301 11.0131L7.89374 11.9727L7.41057 11.6358Z" fill="#44DFD7"/>
</g>
<defs>
<clipPath id="clip0_649_137527">
<rect width="24" height="24" fill="white"/>
</clipPath>
</defs>
</svg>
