<svg width="180" height="180" viewBox="0 0 180 180" fill="none" xmlns="http://www.w3.org/2000/svg">
<g clip-path="url(#clip0_649_134780)">
<path d="M60.6054 0.986328H12.3957C6.069 0.986328 0.940186 6.11514 0.940186 12.4418V167.574C0.940186 173.901 6.069 179.03 12.3957 179.03H60.6054" stroke="#44DFD7" stroke-width="2"/>
<path d="M119.41 0.986328H167.62C173.946 0.986328 179.075 6.11514 179.075 12.4418V167.574C179.075 173.901 173.946 179.03 167.62 179.03H119.41" stroke="#44DFD7" stroke-width="2"/>
<path d="M145.493 42.4731C127.453 38.3284 109.414 34.1837 91.3751 30.0391C73.3359 34.1837 55.2968 38.3284 37.2576 42.4731V117.783C55.2968 129.399 73.3359 141.004 91.3751 152.62C109.414 141.004 127.453 129.399 145.493 117.783V42.4731Z" stroke="#44DFD7" stroke-width="2"/>
<path d="M145.503 44.123L112.847 76.7948L81.1831 71.9665L59.1 102.502L87.0049 90.019L116.486 105.966L145.503 90.019" stroke="#44DFD7" stroke-width="2"/>
</g>
<defs>
<clipPath id="clip0_649_134780">
<rect width="180" height="180" fill="white"/>
</clipPath>
</defs>
</svg>
