<svg width="180" height="180" viewBox="0 0 180 180" fill="none" xmlns="http://www.w3.org/2000/svg">
<g clip-path="url(#clip0_649_134793)">
<path d="M40.5753 65.8516V87.5071" stroke="#44DFD7" stroke-width="2.5" vector-effect="non-scaling-stroke"/>
<path d="M40.5753 87.5078L27.1717 104.517" stroke="#44DFD7" stroke-width="2.5" vector-effect="non-scaling-stroke"/>
<path d="M40.5753 87.5078L53.9788 104.517" stroke="#44DFD7" stroke-width="2.5" vector-effect="non-scaling-stroke"/>
<path d="M40.5753 87.5078L20.7433 78.8099" stroke="#44DFD7" stroke-width="2.5" vector-effect="non-scaling-stroke"/>
<path d="M40.5753 87.5078L60.4073 78.8099" stroke="#44DFD7" stroke-width="2.5" vector-effect="non-scaling-stroke"/>
<path d="M90 65.8516V87.5071" stroke="#44DFD7" stroke-width="2.5" vector-effect="non-scaling-stroke"/>
<path d="M90 87.5078L76.5965 104.517" stroke="#44DFD7" stroke-width="2.5" vector-effect="non-scaling-stroke"/>
<path d="M90 87.5078L103.404 104.517" stroke="#44DFD7" stroke-width="2.5" vector-effect="non-scaling-stroke"/>
<path d="M90 87.5078L70.168 78.8099" stroke="#44DFD7" stroke-width="2.5" vector-effect="non-scaling-stroke"/>
<path d="M90 87.5078L109.832 78.8099" stroke="#44DFD7" stroke-width="2.5" vector-effect="non-scaling-stroke"/>
<path d="M139.425 65.8516V87.5071" stroke="#44DFD7" stroke-width="2.5" vector-effect="non-scaling-stroke"/>
<path d="M139.425 87.5078L126.021 104.517" stroke="#44DFD7" stroke-width="2.5" vector-effect="non-scaling-stroke"/>
<path d="M139.425 87.5078L152.828 104.517" stroke="#44DFD7" stroke-width="2.5" vector-effect="non-scaling-stroke"/>
<path d="M139.425 87.5078L119.593 78.8099" stroke="#44DFD7" stroke-width="2.5" vector-effect="non-scaling-stroke"/>
<path d="M139.425 87.5078L159.257 78.8099" stroke="#44DFD7" stroke-width="2.5" vector-effect="non-scaling-stroke"/>
<path d="M24.5453 114.877H155.454" stroke="#44DFD7" stroke-width="2.5" vector-effect="non-scaling-stroke"/>
<path d="M60.6002 0.986328H12.3946C6.06843 0.986328 0.940063 6.1147 0.940063 12.4409V167.56C0.940063 173.886 6.06844 179.015 12.3946 179.015H60.6002" stroke="#44DFD7" stroke-width="2.5" vector-effect="non-scaling-stroke"/>
<path d="M119.4 0.986328H167.605C173.932 0.986328 179.06 6.1147 179.06 12.4409V167.56C179.06 173.886 173.932 179.015 167.605 179.015H119.4" stroke="#44DFD7" stroke-width="2.5" vector-effect="non-scaling-stroke"/>
</g>
<defs>
<clipPath id="clip0_649_134793">
<rect width="180" height="180" fill="white"/>
</clipPath>
</defs>
</svg>
