<svg width="24" height="24" viewBox="0 0 24 24" fill="none" xmlns="http://www.w3.org/2000/svg">
<g clip-path="url(#clip0_649_8791)">
<path d="M8.19978 0.511719H2.5C1.39543 0.511719 0.5 1.40715 0.5 2.51172V21.4882C0.5 22.5928 1.39543 23.4882 2.5 23.4882H8.19978" stroke="#44DFD7"/>
<path d="M15.7885 0.511719H21.4883C22.5929 0.511719 23.4883 1.40715 23.4883 2.51172V21.4882C23.4883 22.5928 22.5929 23.4882 21.4883 23.4882H15.7885" stroke="#44DFD7"/>
<path d="M18.8874 5.78332C16.5921 5.25593 14.2967 4.72855 12.0013 4.20117C9.70596 4.72855 7.4106 5.25593 5.11523 5.78332V15.366C7.4106 16.8441 9.70596 18.3207 12.0013 19.7988C14.2967 18.3207 16.5921 16.8441 18.8874 15.366V5.78332Z" stroke="#44DFD7"/>
<path d="M18.8887 5.99414L14.7335 10.1514L10.7045 9.53704L7.89453 13.4224L11.4452 11.8341L15.1965 13.8632L18.8887 11.8341" stroke="#44DFD7"/>
</g>
<defs>
<clipPath id="clip0_649_8791">
<rect width="24" height="24" fill="white"/>
</clipPath>
</defs>
</svg>
